<svg width="280" height="140" viewBox="0 0 280 140" fill="none" xmlns="http://www.w3.org/2000/svg">
<path d="M106.587 82V55.4H117.265C120.027 55.4 122.129 56.046 123.573 57.338C125.043 58.6047 125.777 60.2387 125.777 62.24C125.777 63.912 125.321 65.2547 124.409 66.268C123.523 67.256 122.433 67.9273 121.141 68.282C122.661 68.586 123.915 69.346 124.903 70.562C125.891 71.7527 126.385 73.146 126.385 74.742C126.385 76.8447 125.625 78.58 124.105 79.948C122.585 81.316 120.432 82 117.645 82H106.587ZM111.451 66.572H116.543C117.911 66.572 118.963 66.2553 119.697 65.622C120.432 64.9887 120.799 64.0893 120.799 62.924C120.799 61.8093 120.432 60.9353 119.697 60.302C118.988 59.6433 117.911 59.314 116.467 59.314H111.451V66.572ZM111.451 78.048H116.885C118.329 78.048 119.444 77.7187 120.229 77.06C121.04 76.376 121.445 75.426 121.445 74.21C121.445 72.9687 121.027 71.9933 120.191 71.284C119.355 70.5747 118.228 70.22 116.809 70.22H111.451V78.048ZM130.446 82V54.64H135.31V82H130.446ZM149.324 82.456C147.5 82.456 145.853 82.038 144.384 81.202C142.94 80.366 141.787 79.2133 140.926 77.744C140.09 76.2493 139.672 74.5267 139.672 72.576C139.672 70.6253 140.103 68.9153 140.964 67.446C141.825 65.9513 142.978 64.786 144.422 63.95C145.891 63.114 147.538 62.696 149.362 62.696C151.161 62.696 152.782 63.114 154.226 63.95C155.695 64.786 156.848 65.9513 157.684 67.446C158.545 68.9153 158.976 70.6253 158.976 72.576C158.976 74.5267 158.545 76.2493 157.684 77.744C156.848 79.2133 155.695 80.366 154.226 81.202C152.757 82.038 151.123 82.456 149.324 82.456ZM149.324 78.238C150.591 78.238 151.693 77.7693 152.63 76.832C153.567 75.8693 154.036 74.4507 154.036 72.576C154.036 70.7013 153.567 69.2953 152.63 68.358C151.693 67.3953 150.603 66.914 149.362 66.914C148.07 66.914 146.955 67.3953 146.018 68.358C145.106 69.2953 144.65 70.7013 144.65 72.576C144.65 74.4507 145.106 75.8693 146.018 76.832C146.955 77.7693 148.057 78.238 149.324 78.238ZM172.559 82.456C170.634 82.456 168.936 82.038 167.467 81.202C165.998 80.366 164.832 79.2007 163.971 77.706C163.135 76.2113 162.717 74.5013 162.717 72.576C162.717 70.6507 163.135 68.9407 163.971 67.446C164.832 65.9513 165.998 64.786 167.467 63.95C168.936 63.114 170.634 62.696 172.559 62.696C174.966 62.696 176.992 63.3293 178.639 64.596C180.286 65.8373 181.337 67.56 181.793 69.764H176.663C176.41 68.852 175.903 68.1427 175.143 67.636C174.408 67.104 173.534 66.838 172.521 66.838C171.178 66.838 170.038 67.3447 169.101 68.358C168.164 69.3713 167.695 70.7773 167.695 72.576C167.695 74.3747 168.164 75.7807 169.101 76.794C170.038 77.8073 171.178 78.314 172.521 78.314C173.534 78.314 174.408 78.0607 175.143 77.554C175.903 77.0473 176.41 76.3253 176.663 75.388H181.793C181.337 77.516 180.286 79.226 178.639 80.518C176.992 81.81 174.966 82.456 172.559 82.456ZM186.11 82V54.64H190.974V70.79L197.662 63.152H203.438L195.724 71.74L204.692 82H198.612L190.974 72.538V82H186.11ZM207.708 82V54.64H212.572V82H207.708ZM219.898 90.36L224.268 80.746H223.128L215.794 63.152H221.076L226.358 76.414L231.868 63.152H237.036L225.066 90.36H219.898Z" fill="#64748B"/>
<mask id="mask0_421_1251" style="mask-type:alpha" maskUnits="userSpaceOnUse" x="41" y="43" width="50" height="54">
<path d="M61.4478 44.9112C64.2648 43.2848 67.7354 43.2848 70.5524 44.9112L85.4513 53.5131C88.2683 55.1395 90.0036 58.1451 90.0036 61.3979V78.6017C90.0036 81.8545 88.2683 84.8601 85.4513 86.4865L70.5524 95.0884C67.7354 96.7148 64.2648 96.7148 61.4478 95.0884L46.5488 86.4865C43.7319 84.8601 41.9966 81.8545 41.9966 78.6017V61.3979C41.9966 58.1451 43.7319 55.1395 46.5488 53.5131L61.4478 44.9112Z" fill="#C4C4C4"/>
</mask>
<g mask="url(#mask0_421_1251)">
<rect width="30.3817" height="30.3817" transform="matrix(0.866025 0.5 -0.866025 0.5 66.0005 41.8311)" fill="#059669"/>
<rect width="27.9554" height="27.9554" transform="matrix(0.866025 0.5 -2.20305e-08 1 41.7896 57.2422)" fill="#13C58A"/>
<rect width="27.9554" height="27.9554" transform="matrix(0.866025 -0.5 2.20305e-08 1 66.0005 71.2227)" fill="#10B981"/>
</g>
</svg>
